<?xml version="1.0" encoding="UTF-8"?>
<!DOCTYPE svg PUBLIC "-//W3C//DTD SVG 1.1//EN" "http://www.w3.org/Graphics/SVG/1.1/DTD/svg11.dtd">
<!-- Creator: CorelDRAW 2026 -->
<svg xmlns="http://www.w3.org/2000/svg" xml:space="preserve" width="19700" height="3750" version="1.1" style="shape-rendering:geometricPrecision; text-rendering:geometricPrecision; image-rendering:optimizeQuality; fill-rule:evenodd; clip-rule:evenodd"
viewBox="700 12850 19700 3750"
 xmlns:xlink="http://www.w3.org/1999/xlink"
 xmlns:xodm="http://www.corel.com/coreldraw/odm/2003">
 <defs>
  <style type="text/css">
   <![CDATA[
    .fil0 {fill:black}
   ]]>
  </style>
 </defs>
 <g id="Layer_x0020_1">
  <metadata id="CorelCorpID_0Corel-Layer"/>
  <g id="_2634851022560">
   <path class="fil0" d="M670.63 12958.43c4.08,28.99 52.29,97.33 68.26,121.41 76.64,115.56 143.79,232.47 218.25,348.92 49.06,76.7 97.01,154.1 144.98,231.79 336.25,544.56 676.4,1086.7 1009.56,1636.29 133.96,220.98 290.27,485.27 430.58,703.96 54.92,85.59 79.23,165.64 171,205.75 110.18,48.14 214.52,8.8 273.23,-55.06 46.41,-50.49 173.02,-273.13 219.89,-347.39 85.29,-135.12 117.71,-294.07 72.88,-455.53 -24.23,-87.24 -80.07,-182.1 -121.57,-255.26l-273.27 -484.52c-45.47,-78.88 -92.54,-159.94 -136.33,-240.47 -43.58,-80.12 -90.59,-158.67 -136.05,-240.65l-610.99 -1090.77c-80.82,-147.11 -122.46,-221.47 -344.93,-221.78l-753.53 -0.18c-58.11,0.19 -123.1,-3.2 -169.74,20.22 -37.49,18.84 -70.55,64.1 -62.22,123.27z"/>
   <path class="fil0" d="M17961.51 14780.28c2.51,-71.85 59.1,-218.76 90.11,-272.64 141.62,-246.03 383.05,-389.27 698.74,-393.95 319.21,-4.72 559.97,139.56 703.36,389.29 29.45,51.3 82.23,209.67 82.39,277.95l-1574.6 -0.65zm1998.01 310.19c18.98,-145.95 -12.01,-392.55 -52.02,-520.44 -46.37,-148.18 -112.91,-277.79 -193.6,-378.03 -60.26,-74.85 -58.52,-63.99 -102.38,-113.51 -18.51,-20.91 -93.02,-80.2 -117.03,-98.95 -132.79,-103.73 -318.52,-179.7 -504.49,-211.04 -719.89,-121.3 -1264.78,308.88 -1417.96,839.39 -52.51,181.88 -54.37,324.22 -33.81,518.55 21.6,204.13 130.66,456.83 260.04,600.22 96.97,107.47 183.89,189.67 310.96,264.75 59.93,35.41 120.26,63.58 190.88,92.88 288.54,119.72 684.27,99.24 969.33,-11.83 178.46,-69.53 314.65,-165.13 425.54,-289.88 49.6,-55.8 156.98,-201.46 165.36,-264.28l-372.05 -90.05c-35.08,48.8 -99.62,140.09 -147.59,177.83 -57.16,44.97 -118.96,91.65 -201.17,124.86 -252.68,102.06 -554.71,95.27 -795.64,-46.18 -119.4,-70.1 -109.96,-84.36 -179.82,-146.19 -96.6,-85.5 -200.74,-310.26 -206.59,-447.23 163.77,-5.46 339.73,1.39 505.01,1.32 166.51,-0.06 333.02,0.48 499.53,0.2 96.16,-0.15 926.79,4.54 997.5,-2.39z"/>
   <path class="fil0" d="M5094.73 14786.5c1.56,-71.93 59.24,-215.61 90.42,-271.73 38.36,-69.07 100.95,-155.16 161.41,-202.75 34.71,-27.33 63.21,-51.23 105.43,-76.67 126.23,-76.06 270.63,-115.49 424.77,-117.27 244.03,-2.81 403.32,71.25 543.01,185.38l89.31 92.69c76.25,94.5 150.46,262.04 151.93,391.46 -261.1,-0.49 -523.1,0.31 -784.25,1.39 -70.69,0.29 -726.12,4.65 -782.03,-2.5zm1994.17 306.62c12.26,-28.16 0.31,-236.18 -3.28,-279.64 -17.74,-214.9 -117.63,-460.94 -242.41,-615.9 -178.83,-222.07 -417.96,-376.22 -718.8,-423.79 -350.13,-55.37 -684.63,17.08 -928.63,180.05 -30.28,20.23 -57.86,41.42 -83.19,60.73 -66.61,50.78 -162.74,149.72 -212.44,215.18 -299.06,393.88 -315.5,919.77 -84.44,1326.46 97.99,172.47 252.98,333.69 424.43,434.92 57.47,33.93 122.57,67.13 190.82,92.79 462.11,173.72 1081.84,72.57 1396.48,-299.53 44.28,-52.36 157.98,-201.46 168.17,-261.61l-379.44 -93.39c-36.27,91.75 -155.27,197.46 -241.63,249.25 -36.21,21.71 -63.2,38.72 -104.56,56.35 -287.18,122.41 -646.04,75.38 -890.88,-115.67 -42.01,-32.78 -89.13,-83.69 -121.12,-124.41 -13.16,-16.76 -21.95,-27.4 -34.49,-45.84 -59.33,-87.28 -128.21,-247.14 -128.52,-351.9 67,-8.33 908.67,-2.9 997.7,-2.76 76.13,0.11 943.03,3.97 996.23,-1.29z"/>
   <path class="fil0" d="M3416.57 15518.42c13.45,-6.91 22.5,-28.78 31.6,-44.02l82.53 -137.57c89.53,-162.34 231.67,-388.6 334.59,-554.53 148.46,-239.37 301.47,-500.06 450.36,-734.9 190.33,-300.2 378.97,-611.23 568.5,-913.17 19.94,-31.77 37.68,-59.83 57.77,-90.39 14.7,-22.35 43.43,-66.74 50.15,-98.65 15.33,-72.75 -52.79,-141.26 -152.3,-142.42l-588.61 -0.13c-90.72,-0.22 -205.37,-4.53 -292.29,3.16 -198.16,17.54 -238.89,140.02 -318.61,274.1 -73.16,123.06 -144.08,253.21 -218.86,373.77 -37.28,60.08 -74.42,124.38 -110.23,186.12l-219.67 372.99c-33.66,58.01 -78.54,125.98 -98.24,198.01 -52.05,190.34 22.3,328.24 98.75,461.35 86.13,149.96 264.14,428.78 306.77,582.23 41.17,148.18 9.49,173.31 17.79,264.05z"/>
   <path class="fil0" d="M15435.36 16116.38c10.26,-211.21 3.35,-441.89 3.16,-656.05 -0.19,-218.72 -0.41,-437.45 -0.22,-656.17 0.65,-754.21 815.77,-822.83 1113.43,-489.53 121.19,135.71 162.45,304.37 166.85,489.53 7.3,307.09 2.37,670.91 1.19,986.37 -0.39,103.82 -3.95,220.14 1.78,322.75 31.77,8.56 170.36,3.77 212.7,3.64 36.72,-0.12 191.13,5.99 210.76,-5.69 12.67,-22.78 4.61,-760.08 4.31,-854.1 -1.26,-390.11 34.88,-778.41 -186.76,-1103.46 -112.67,-165.23 -303.46,-304.24 -503.04,-356.8 -360.3,-94.88 -753.28,-56.39 -1043.25,149.73 -145.32,103.29 -288.26,279.45 -354.5,505.03 -72.18,245.79 -52.32,532.79 -52.99,805.5l0.02 647.7c0.21,65.13 -3.66,146.48 1.41,211.53l425.15 0.02z"/>
   <path class="fil0" d="M8968.28 15719.17c6.23,18.8 35.07,50.06 47.7,64.87 127.38,149.43 289.26,250.94 481.72,313.78 243.52,79.51 545.55,91.45 804.69,33.14 262.21,-59 445.92,-179.5 547.81,-362.3 56.77,-101.86 89.79,-233.85 74.93,-372.14 -27.75,-258.1 -185.82,-414.27 -407.38,-504.77 -115.75,-47.27 -220.52,-70.44 -352.24,-100.6 -193.23,-44.26 -547.45,-80.01 -653.65,-252.3 -31.34,-50.84 -38.58,-123.02 -20.53,-183.99 87.61,-295.96 599.74,-273.41 822.99,-169.78 51.57,23.93 104.8,54.47 142.65,85.94 62.16,51.68 60.72,53.94 110.34,115.78l298.63 -251.51c-5.66,-8.56 -18.2,-18.12 -27.5,-29.79l-83.44 -85.9c-139.85,-112.68 -254.43,-182.77 -452.23,-229.66 -255.35,-60.53 -552.58,-50.42 -785.97,39.83 -210.62,81.44 -388.53,231.26 -445.66,460.34 -31.6,126.73 -23.52,273.38 25.45,388.8 44.16,104.1 130.27,186.26 213.16,239.85 314.29,203.23 782.49,191.85 1035.18,323.71 116.42,60.75 181.97,161.13 150.18,294.02 -78.65,328.74 -704.41,321.99 -980.24,155.03 -64.71,-39.17 -143.85,-96.73 -190.83,-152.1l-52.14 -56.49c-31.37,19.22 -80.8,61.72 -114.13,87.58l-189.49 148.66z"/>
   <path class="fil0" d="M12219.44 13797.16l1.95 361.01c51.14,-0.23 331.24,-5.47 357.49,2.52l0.85 1952.73c35.64,6.33 322.11,4.94 400.85,3.2 15.45,-0.35 15.16,1.3 25.88,-4.12 9.13,-28.73 3.21,-867.42 3.71,-973.91 0.5,-103.84 -6.4,-954.88 2.51,-979.6l641.84 -0.7 1.29 -362.68 -644.94 -0.26c-12.13,-43.52 1.57,-276.62 11.85,-324.87 74.14,-347.94 418.01,-301.1 715.13,-301.36l2.19 -368.14c-208.96,-4.24 -400.27,-18.89 -596.79,27.97 -351.22,83.76 -531.92,352.9 -559.04,701.4 -5.27,67.65 -2.27,159.83 -3.07,232.76 -0.44,40.25 -4.82,31.33 -45.26,31.34 -52.23,0.01 -104.44,0.54 -156.7,0.49 -47.79,-0.05 -114.01,-3.65 -159.74,2.22z"/>
   <path class="fil0" d="M7919.71 16114.9c4.34,-55.16 0.55,-123.71 0.74,-180.44l0.1 -897.47c0.02,-213.34 -2.55,-422.48 115.36,-600.98 251.34,-380.5 677.22,-262.4 782.01,-278.68l0.21 -385.42c-413.74,-35.67 -777.32,43.69 -1041.08,333.32 -58.33,64.05 -50.48,52.88 -102.73,125.83 -99,138.2 -165.68,335.27 -176.25,513.69 -8.72,147.22 -3.42,303.96 -4.39,453.11 -1,153.66 -0.93,307.76 -0.55,461.43 0.27,109.33 -3.63,365.95 1.87,457.54l424.71 -1.93z"/>
   <path class="fil0" d="M11382.27 16116.9c53.96,1.55 402.93,4.34 425.79,-3.85 10.92,-25.46 3.89,-2103.35 2.2,-2315.59 -35.1,-8.4 -165.62,-2.96 -210.02,-2.63 -72.16,0.52 -144.54,-0.25 -216.63,0.46l-1.34 2321.61z"/>
   <path class="fil0" d="M14508.2 16078.07c2.48,-224.88 -3.77,-451.77 -1.06,-677.01 2.68,-222.91 1.45,-450.04 -0.04,-673.1 -1.5,-224.32 2.19,-448.96 1.15,-673.1l-4.7 -207.75c-0.88,-15.01 2.97,-29.76 -0.25,-34.3 -8.6,-12.17 -286.12,-7.72 -329.21,-7.42 -71.54,0.51 -36.3,7.46 -63.5,12.43l0 2188.64c0.01,-18.95 -2.32,-22.79 3.75,-33.99 1.07,92.22 -14.77,131.4 38.75,134.22l323.62 -1.52c-16.13,-1.11 -14.89,-3.47 -21.58,-6.88l-13.56 -6.51c28.61,-0.57 47.67,-4.1 66.63,-13.71z"/>
   <path class="fil0" d="M14275.85 12791.91c-86.78,18.59 -147.2,54.64 -184.74,104.8 -174.49,233.08 44.31,504.85 283.57,460.76 265.04,-48.84 318.28,-368.91 131.66,-511.13 -51.88,-39.53 -144.22,-72.91 -230.49,-54.43z"/>
   <path class="fil0" d="M11558.06 12796.1c-44.43,7.11 -74.07,16.38 -109.44,36.05 -97.96,54.49 -158.98,160.12 -142.49,284.88 19.14,144.86 165.74,265.73 335.16,241.59 152.74,-21.76 272.17,-168.66 246.93,-320.1 -23.98,-143.94 -157.7,-270.01 -330.16,-242.42z"/>
   <path class="fil0" d="M14508.2 16078.07c-18.96,9.61 -38.02,13.14 -66.63,13.71l13.56 6.51c6.69,3.41 5.45,5.77 21.58,6.88l-323.62 1.52c-53.52,-2.82 -37.68,-42 -38.75,-134.22 -6.07,11.2 -3.74,15.04 -3.75,33.99l0 -2188.64c27.2,-4.97 -8.04,-11.92 63.5,-12.43 43.09,-0.3 320.61,-4.75 329.21,7.42 3.22,4.54 -0.63,19.29 0.25,34.3l4.7 207.75c1.04,224.14 -2.65,448.78 -1.15,673.1 1.49,223.06 2.72,450.19 0.04,673.1 -2.71,225.24 3.54,452.13 1.06,677.01zm-46.22 37.91c15.67,-0.05 31.37,0.03 47.01,-0.01 37.51,-0.1 27.71,6.49 27.56,-105.31l1.06 -1549.4c-0.08,-165.79 5.33,-518.09 -2.54,-666.58l-430.71 0.78c-6.25,156.59 -1.91,434.87 -1.68,602.3 0.77,569.75 -4.08,1149.4 2.09,1717.96l357.21 0.26z"/>
  </g>
 </g>
</svg>
